<svg width="108" height="101" viewBox="0 0 108 101" fill="none" xmlns="http://www.w3.org/2000/svg">
<path d="M107.577 35.8843C103.651 -14.1225 30.4062 7.567 54.0688 51.5655H54.0676C85.6407 107.007 71.4962 106.687 102.986 51.5655H102.985C105.891 47.0425 107.577 41.6608 107.577 35.8843ZM88.1957 49.9129C77.4723 57.7632 60.9682 49.2889 61.4913 35.6923C61.5926 26.4475 69.1515 18.9169 78.397 18.848C94.9632 18.392 101.822 40.9966 88.1957 49.9129Z" fill="url(#paint0_linear_307_540)"/>
<path d="M78.2036 89.2422L56.5168 49.1166H56.5178C49.5082 38.9017 50.8054 23.0837 59.2655 14.1743C48.8609 22.7638 46.2993 40.299 54.0694 51.5659H54.0675L75.7542 91.6915C77.3338 94.3991 80.8247 93.5631 81.7865 90.792C80.4631 91.137 78.9479 90.62 78.2036 89.2422Z" fill="url(#paint1_linear_307_540)"/>
<path d="M43.242 8.00475L7.3419 1.70502L7.73173 0.124023C7.53167 0.169025 2.56821 1.12715 2.53612 1.1425C0.871574 1.46239 0.370798 3.99959 0.51906 4.17035C0.514525 5.95874 0.269282 92.6138 0.270154 92.6733C0.255851 94.3341 1.38212 95.5837 2.63415 95.7377C2.73514 95.7578 7.78354 96.7574 7.78354 96.7574L6.62884 95.185L43.2207 88.794C44.5181 88.5674 45.5593 87.0133 45.5594 85.3207L45.5685 11.45C45.5689 9.77273 44.5329 8.23133 43.242 8.00475Z" fill="#6D2D2D"/>
<path d="M49.3594 89.6786L8.81359 96.7601C6.97026 97.0821 5.46252 95.6649 5.46828 93.5913L5.72259 3.17481C5.72835 1.12356 7.23556 -0.275508 9.06668 0.0459587L49.3808 7.12032C50.7002 7.35178 51.7586 8.92702 51.7584 10.6411L51.749 86.1292C51.7492 87.8588 50.685 89.4472 49.3594 89.6786Z" fill="#8C4F4F"/>
<path d="M47.7236 86.3949L11.0391 92.2503C9.68138 92.467 8.57395 91.3979 8.57814 89.8607L8.7967 6.87295C8.80071 5.35074 9.90796 4.29425 11.2577 4.51106L47.7508 10.3712C48.7555 10.5326 49.5636 11.7147 49.5633 13.0127L49.5455 83.7338C49.5452 85.0427 48.733 86.2337 47.7236 86.3949Z" fill="#F9E4E4"/>
<mask id="mask0_307_540" style="mask-type:luminance" maskUnits="userSpaceOnUse" x="8" y="9" width="79" height="92">
<path d="M8.78922 9.50244L8.57764 92.8743L31.3826 89.0641L76.7811 100.63L86.6019 9.50244H8.78922Z" fill="white"/>
</mask>
<g mask="url(#mask0_307_540)">
<path d="M50.2723 44.2159C46.7362 43.4725 38.5036 41.9993 38.5002 41.9974C38.1042 41.8261 37.717 41.6119 37.3381 41.3642C36.8995 42.0704 36.2874 43.4177 35.9888 45.7231C36.7212 46.3847 37.7377 46.3441 38.6824 46.3535C42.483 46.4161 46.2366 47.1283 50.045 46.7585C49.8343 45.8935 49.9871 45.0475 50.2723 44.2159Z" fill="url(#paint2_linear_307_540)"/>
<path d="M31.1737 34.4076C29.0875 34.5084 28.3787 38.0043 29.795 40.4462C31.0722 42.9309 33.8454 44.1362 35.9885 45.7231C36.2873 43.4177 36.8992 42.0705 37.3379 41.3642C34.9671 39.8151 32.926 36.9118 31.1737 34.4076Z" fill="url(#paint3_linear_307_540)"/>
<path d="M33.2916 30.2665C33.2916 30.2665 32.667 34.2685 33.7526 35.4019C33.7526 35.4019 31.1387 37.7283 28.8726 33.9889C28.8726 33.9889 29.9884 31.8641 29.5736 29.8805L33.2916 30.2665Z" fill="url(#paint4_linear_307_540)"/>
<path d="M42.4672 62.0993C42.599 61.7724 41.5446 61.5678 40.3618 61.4427C37.3516 61.168 36.6558 61.2624 34.2055 61.3555C30.9197 61.4129 26.3023 61.6273 23.8218 59.0657C22.6039 57.1951 25.6747 52.1005 25.6747 52.1005L29.4248 50.3482L29.9235 51.0381L30.1272 50.8481C30.6174 51.2052 33.3566 53.2041 33.9065 53.6054C35.6455 53.5953 40.9329 54.1573 43.3524 55.0738C43.433 55.1231 45.8425 56.6158 45.8986 59.4546L42.4086 62.262C42.4447 62.1556 42.4672 62.0993 42.4672 62.0993Z" fill="url(#paint5_linear_307_540)"/>
<path d="M45.9207 59.4366C45.5679 65.1509 43.9243 73.9164 43.9429 73.7409C42.5341 74.1719 41.3292 74.0187 41.3292 74.0187C41.5782 69.6932 40.4923 65.4752 40.3512 61.1683C40.3239 60.3567 40.3564 59.5622 40.49 58.7612C40.5364 58.479 40.5967 57.4978 40.8416 57.3004C40.8432 57.2988 42.1263 56.1614 43.3527 55.0735C43.4326 55.1228 45.8431 56.6159 45.8988 59.4544L45.9207 59.4366Z" fill="url(#paint6_linear_307_540)"/>
<path d="M41.3769 73.9133C41.3769 73.9133 42.6934 74.1673 43.9428 73.7408C45.8415 76.1428 48.8889 74.708 49.1674 76.8485C49.1674 76.8485 45.1931 78.2654 40.9495 77.2802C40.9495 77.2802 40.6523 75.3943 41.3769 73.9133Z" fill="url(#paint7_linear_307_540)"/>
<path d="M71.8795 86.2245C71.2444 99.5147 51.4654 98.9056 51.6482 85.6034C52.2831 72.3137 72.0623 72.9226 71.8795 86.2245Z" fill="url(#paint8_linear_307_540)"/>
<path opacity="0.5" d="M69.5602 92.3671C59.4794 103.526 44.0497 87.1001 55.801 77.7359C48.3209 86.8128 60.0481 99.2745 69.5602 92.3671Z" fill="url(#paint9_linear_307_540)"/>
<path d="M56.8468 45.7026C52.2519 45.581 50.2849 43.4434 49.8872 42.9446C53.9965 42.9815 55.1275 42.2814 56.8468 45.7026Z" fill="url(#paint10_linear_307_540)"/>
<path d="M32.6884 63.4182C32.6884 63.4182 35.2819 62.3639 33.8696 60.9694L7.79749 60.1695C7.79749 60.1695 3.99031 62.5377 7.88436 62.6572L32.6884 63.4182Z" fill="url(#paint11_linear_307_540)"/>
<path d="M70.6595 79.0481C63.3028 75.6349 56.4658 78.6994 53.594 80.3774C51.6919 81.7081 48.9636 79.7051 47.2085 78.9994C50.2362 66.9977 67.7763 66.4245 71.5712 78.2302C71.7582 78.7852 71.1912 79.2947 70.6595 79.0481Z" fill="url(#paint12_linear_307_540)"/>
<g opacity="0.5">
<path d="M57.6119 69.7058C57.4555 71.2075 56.4388 76.074 54.515 79.72C51.8613 82.0587 49.8294 80.0725 47.2085 78.9996C48.7865 73.8593 51.8248 69.6486 57.6119 69.7058Z" fill="url(#paint13_linear_307_540)"/>
</g>
<path d="M52.1683 81.305C51.3684 82.7934 49.7958 83.7016 48.107 83.6498L1.02899 82.2052C0.166453 82.1787 -0.501596 81.4423 -0.442116 80.5815C-0.172978 76.7014 1.1701 66.7122 7.88479 62.6573L32.689 63.4185C32.689 63.4185 29.7752 67.2002 28.7452 74.939C28.6046 75.9949 29.4026 76.9435 30.4679 76.9761L41.6527 77.3194C42.7164 77.352 43.716 76.8146 44.2764 75.91L50.4698 65.9088C51.0956 64.898 51.3339 63.6948 51.141 62.5225C51.0185 61.8072 48.7695 48.0786 48.7219 47.8091L53.2557 47.9483C54.3937 53.0128 57.589 67.2826 57.6497 69.3696C57.6587 70.8764 54.1503 77.618 52.1683 81.305Z" fill="url(#paint14_linear_307_540)"/>
<path opacity="0.5" d="M53.7733 50.2554C50.6175 50.0712 48.9609 49.2668 48.9609 49.2668L51.7067 47.9001L53.2549 47.9476C53.2553 47.9478 53.4575 48.8375 53.7733 50.2554Z" fill="url(#paint15_linear_307_540)"/>
<path d="M57.9467 49.0726C56.166 49.4407 45.2214 49.7627 45.5645 48.5321C45.7475 47.2764 46.4661 45.2635 46.9214 44.0692C47.4089 42.8102 48.7042 43.0141 49.8872 42.9447C50.2849 43.4434 52.2518 45.5811 56.8467 45.7027C57.4311 46.7479 57.9629 47.8605 58.2451 48.4712C58.3602 48.7208 58.2155 49.0152 57.9467 49.0726Z" fill="url(#paint16_linear_307_540)"/>
<path d="M21.4782 84.678C20.8431 97.968 1.06407 97.3591 1.24686 84.0569C1.88177 70.767 21.661 71.3761 21.4782 84.678Z" fill="url(#paint17_linear_307_540)"/>
<path opacity="0.5" d="M19.1598 90.8204C9.07906 101.979 -6.35064 85.5534 5.40059 76.1892C-2.07948 85.2663 9.64751 97.7278 19.1598 90.8204Z" fill="url(#paint18_linear_307_540)"/>
<path opacity="0.5" d="M27.1435 83.0063L1.02899 82.205C0.166453 82.1785 -0.501596 81.442 -0.442116 80.5813C-0.298739 78.519 0.147445 74.731 1.54233 71.026C10.8931 65.005 24.768 70.3995 27.6893 80.925C27.9397 81.7091 27.6832 82.5003 27.1435 83.0063Z" fill="url(#paint19_linear_307_540)"/>
<path d="M23.6214 82.8983L-0.783496 82.1495C-6.38832 80.842 4.23194 69.3418 11.7858 70.5825C19.4017 69.8077 29.2957 81.9371 23.6214 82.8983Z" fill="url(#paint20_linear_307_540)"/>
<path opacity="0.5" d="M57.9469 49.073C56.1667 49.4403 45.2234 49.7625 45.5644 48.5324C45.8817 47.2581 46.5327 43.8109 47.7217 43.1866C47.5065 43.8692 45.4472 48.4238 46.6945 48.4344C48.5339 48.5741 55.1127 49.0156 58.2555 48.4969C58.3504 48.7409 58.2065 49.0177 57.9469 49.073Z" fill="url(#paint21_linear_307_540)"/>
<path d="M41.7109 59.7417C41.7209 59.6003 41.7235 59.4618 41.7197 59.3263L41.7418 59.3085C41.7319 59.4515 41.7219 59.5963 41.7109 59.7417Z" fill="url(#paint22_linear_307_540)"/>
<path d="M39.8395 62.0187C39.9713 61.6918 38.9169 61.4872 37.7341 61.362C34.7237 61.0872 34.0281 61.1816 31.5778 61.2748C22.5003 61.5615 20.2274 60.5052 23.3095 52.0862L26.7971 50.2673L27.2958 50.9571L27.4995 50.7672C27.9897 51.1242 30.7289 53.1231 31.2788 53.5245C33.0178 53.5144 38.3052 54.0764 40.7247 54.9928C40.8053 55.0422 43.2148 56.5351 43.2709 59.3737L39.7808 62.1811C39.8168 62.0749 39.8395 62.0187 39.8395 62.0187Z" fill="url(#paint23_linear_307_540)"/>
<path d="M43.2923 59.356C42.9395 65.0704 41.2959 73.8358 41.3145 73.6604C39.9057 74.0914 38.7007 73.9382 38.7007 73.9382C38.9498 69.6126 37.8638 65.3947 37.7227 61.0878C37.6955 60.2762 37.728 59.4816 37.8616 58.6807C37.9078 58.3985 37.9685 57.4175 38.2132 57.2199C38.2148 57.2183 39.4979 56.0809 40.7243 54.9928C40.8041 55.0422 43.2147 56.5352 43.2703 59.3738L43.2923 59.356Z" fill="url(#paint24_linear_307_540)"/>
<path d="M38.7489 73.8327C38.7489 73.8327 40.0655 74.0866 41.3149 73.6602C43.2135 76.0623 46.2609 74.6273 46.5393 76.7679C46.5393 76.7679 42.565 78.1848 38.3214 77.1996C38.3214 77.1996 38.0245 75.3135 38.7489 73.8327Z" fill="url(#paint25_linear_307_540)"/>
<path d="M34.7142 42.1138C34.485 44.7202 32.9166 51.0855 32.39 52.8C28.1061 53.722 23.3096 52.0864 23.3096 52.0864C26.0306 43.5097 21.375 37.215 29.2929 32.9564L33.4029 34.8291C33.7823 34.8271 35.3373 39.624 34.7142 42.1138Z" fill="url(#paint26_linear_307_540)"/>
<path d="M28.8333 25.0706C28.8333 25.0706 27.9577 28.0983 28.7627 29.3441C29.5216 30.5185 31.0246 31.6018 33.4226 32.0768C33.7192 32.1356 34.0228 32.0421 34.1957 31.835C34.4387 31.5443 34.7669 31.0372 34.9982 30.2396C35.0453 30.0768 35.1676 30.0381 35.3455 30.0215C36.5541 29.7578 35.3975 28.1411 35.4971 27.3964C35.5782 26.9933 35.7402 26.2908 35.9532 25.8822C36.2644 25.2854 31.1752 22.7787 28.8333 25.0706Z" fill="url(#paint27_linear_307_540)"/>
<path d="M30.2554 28.4395C30.3667 28.3926 30.4943 28.4632 30.5116 28.578C30.8301 30.3674 31.3722 28.9587 31.3563 28.0915C31.5503 26.6007 32.9686 26.0673 34.3176 25.817C34.9223 25.9602 33.7205 26.6971 34.1575 26.7308C35.3442 26.7291 36.8293 25.8697 36.4749 24.5234C36.2152 23.737 35.077 23.4298 34.3458 23.2273C32.4122 22.692 30.349 22.8048 28.6623 23.9025C27.1959 25.7279 28.898 31.8737 29.287 30.3262C29.3182 30.2015 29.4164 28.7923 30.2554 28.4395Z" fill="url(#paint28_linear_307_540)"/>
<path d="M30.5219 27.1981C30.5207 26.7779 29.74 26.0659 29.4726 26.7078C29.1663 27.4398 29.6951 28.7028 30.471 28.8616L30.5219 27.1981Z" fill="url(#paint29_linear_307_540)"/>
<path opacity="0.5" d="M30.3804 27.1813C29.3837 25.9666 29.465 28.2622 30.3439 28.3695L30.3804 27.1813Z" fill="url(#paint30_linear_307_540)"/>
<path d="M31.7286 19.797C29.3994 19.8881 28.1794 21.9805 27.8018 24.3806C27.7322 24.7992 27.8989 25.2222 28.2171 25.4217C29.2049 26.0416 30.758 25.5771 31.8356 25.5461C33.1711 25.5075 34.5048 25.5967 35.8261 25.7772C36.3888 25.7428 40.9179 27.0015 39.2858 25.4672C38.4911 24.6739 37.4758 24.4936 36.5084 24.1465C36.053 23.7446 35.992 22.8071 35.7375 22.2344C34.9862 20.5448 33.3388 19.7119 31.7286 19.797Z" fill="url(#paint31_linear_307_540)"/>
<path d="M35.96 43.7391C35.9616 43.7384 42.255 44.4265 46.2452 44.9295C46.6305 45.7908 46.7149 45.3919 46.4118 46.2869C46.1107 46.3361 45.837 46.4055 45.5829 46.4882C43.6989 46.9171 38.8633 47.8651 33.7104 47.6293C33.8505 45.3087 34.3682 43.9225 34.7568 43.1879C35.1522 43.4082 35.5534 43.596 35.96 43.7391Z" fill="url(#paint32_linear_307_540)"/>
<path d="M46.7888 44.9982C46.6132 44.9761 46.4321 44.9529 46.2453 44.9295C46.2446 44.9279 46.2446 44.927 46.2446 44.9255C46.2462 44.9255 46.4904 44.9586 46.7888 44.9982Z" fill="url(#paint33_linear_307_540)"/>
<path d="M47.8447 45.1395C47.7985 45.1341 47.4226 45.0834 47.0469 45.0326C47.3326 45.0701 47.5972 45.1029 47.8447 45.1395Z" fill="url(#paint34_linear_307_540)"/>
<path d="M25.8087 43.7167C25.7609 47.5197 26.668 52.5257 32.39 52.7999C28.1061 53.7219 23.3096 52.0863 23.3096 52.0863C24.5508 47.5115 24.4027 46.0699 24.3087 43.5962C25.9375 40.9674 25.6314 36.6889 28.1286 36.6714C29.5364 39.1947 32.5182 44.0026 33.8852 46.8365C33.7303 47.5486 33.5696 48.2432 33.4128 48.8914C31.7207 48.1377 28.2994 45.9097 26.5858 43.4802C26.3463 43.1411 25.8135 43.3026 25.8087 43.7167Z" fill="url(#paint35_linear_307_540)"/>
<path d="M34.714 42.1137C34.6548 42.6302 34.5765 43.175 34.4848 43.7329C34.1867 43.8383 33.9748 43.9039 33.9748 43.9039L29.0615 37.8192C29.1911 37.9628 32.1747 41.2723 34.714 42.1137Z" fill="url(#paint36_linear_307_540)"/>
<path d="M47.6085 44.5276C47.6085 44.5276 49.8165 44.5888 50.6293 44.5401C51.4422 44.4915 51.8707 46.7288 51.8847 46.8422C51.8986 46.9556 51.09 47.2469 50.9892 47.2593C50.8884 47.2716 51.3541 47.5214 51.1519 47.751C50.2416 48.5772 49.9432 47.4145 49.1809 47.3278C48.1298 47.6107 47.2601 46.0819 46.4119 46.2865L46.2446 44.9253L47.6085 44.5276Z" fill="url(#paint37_linear_307_540)"/>
<path opacity="0.3" d="M51.2434 46.729C51.2434 46.729 50.6884 47.002 50.5925 46.9498C50.4966 46.8977 50.1552 45.8905 50.1475 45.8276C50.1397 45.7644 50.9028 45.4147 51.2434 46.729Z" fill="url(#paint38_linear_307_540)"/>
<path d="M51.109 46.3075C51.0936 47.2626 49.5939 47.2166 49.6371 46.2623C49.6525 45.3071 51.1522 45.3532 51.109 46.3075Z" fill="url(#paint39_linear_307_540)"/>
<path d="M22.7909 32.7568C34.0675 34.6371 35.6239 48.7215 20.2793 49.7292L20.3231 48.3015C30.835 49.4403 35.6202 36.5161 22.2655 33.874L22.7909 32.7568Z" fill="url(#paint40_linear_307_540)"/>
<path d="M28.1285 36.6714C26.0542 36.9155 25.5877 40.4518 27.1687 42.7907C28.6138 45.1815 31.4632 46.1932 33.7105 47.6289C33.8498 45.3085 34.3677 43.9221 34.7567 43.1873C32.2849 41.8051 30.0489 39.0492 28.1285 36.6714Z" fill="url(#paint41_linear_307_540)"/>
<path d="M27.0674 28.7147L23.5517 55.4332C23.477 56.0001 22.9574 56.398 22.3916 56.3235L-3.37283 52.9344C-3.93762 52.8601 -4.33653 52.3403 -4.26205 51.7745L-0.747205 25.0547C-0.671678 24.489 -0.152932 24.09 0.412731 24.1655L9.96515 25.4214L26.1772 27.5546C26.7419 27.6289 27.141 28.1476 27.0674 28.7147Z" fill="url(#paint42_linear_307_540)"/>
<path d="M23.6931 54.3644C23.6024 55.1768 23.5623 56.4618 22.3919 56.3232L-3.37322 52.9346C-3.93732 52.8605 -4.3364 52.3403 -4.26209 51.7745L-0.747246 25.0544C-0.603171 24.1059 0.337511 24.0755 1.09905 24.2554L-2.27487 49.9048C-2.34917 50.4714 -1.95008 50.9906 -1.38512 51.0649L23.6931 54.3644Z" fill="url(#paint43_linear_307_540)"/>
<path d="M26.9759 29.4115C26.9759 29.4115 7.85066 26.9821 1.30865 26.1501C0.120464 25.9991 -0.974232 26.8196 -1.15965 28.0034C-1.70141 30.2165 -1.52524 33.6213 -3.01955 35.4922C-4.74584 36.6678 -3.97523 33.5623 -3.69266 32.7293C-2.53656 28.4745 -4.48629 22.4106 3.21007 22.7874C10.791 23.5121 18.4184 24.462 25.8863 25.8395C26.57 26.113 27.3061 26.9038 26.9759 29.4115Z" fill="url(#paint44_linear_307_540)"/>
</g>
<mask id="mask1_307_540" style="mask-type:luminance" maskUnits="userSpaceOnUse" x="8" y="9" width="79" height="92">
<path d="M8.78922 9.50244L8.57764 92.8743L31.3826 89.0641L76.7811 100.63L86.6019 9.50244H8.78922Z" fill="white"/>
</mask>
<g mask="url(#mask1_307_540)">
<path opacity="0.6" d="M17.5309 39.5436C17.3872 47.957 4.87249 47.9556 4.72998 39.5434C4.87371 31.1302 17.3884 31.1315 17.5309 39.5436Z" fill="white"/>
</g>
<defs>
<linearGradient id="paint0_linear_307_540" x1="57.9888" y1="77.3067" x2="96.3775" y2="-0.750335" gradientUnits="userSpaceOnUse">
<stop stop-color="#BF0000"/>
<stop offset="1" stop-color="#FF5555"/>
</linearGradient>
<linearGradient id="paint1_linear_307_540" x1="56.5966" y1="78.3748" x2="86.4656" y2="17.6411" gradientUnits="userSpaceOnUse">
<stop stop-color="#BF0000"/>
<stop offset="1" stop-color="#FF5555"/>
</linearGradient>
<linearGradient id="paint2_linear_307_540" x1="38.3399" y1="45.5568" x2="52.8463" y2="41.5033" gradientUnits="userSpaceOnUse">
<stop stop-color="#F0877E"/>
<stop offset="1" stop-color="#FABEB2"/>
</linearGradient>
<linearGradient id="paint3_linear_307_540" x1="33.081" y1="40.2359" x2="36.6876" y2="38.2902" gradientUnits="userSpaceOnUse">
<stop stop-color="#BF0000"/>
<stop offset="1" stop-color="#FF5555"/>
</linearGradient>
<linearGradient id="paint4_linear_307_540" x1="31.2253" y1="30.4997" x2="31.3123" y2="34.6812" gradientUnits="userSpaceOnUse">
<stop stop-color="#F0877E"/>
<stop offset="1" stop-color="#FABEB2"/>
</linearGradient>
<linearGradient id="paint5_linear_307_540" x1="31.7231" y1="49.3227" x2="36.7403" y2="64.8013" gradientUnits="userSpaceOnUse">
<stop stop-color="#5C2100"/>
<stop offset="1" stop-color="#772900"/>
</linearGradient>
<linearGradient id="paint6_linear_307_540" x1="37.4758" y1="47.4566" x2="42.4937" y2="62.9373" gradientUnits="userSpaceOnUse">
<stop stop-color="#5C2100"/>
<stop offset="1" stop-color="#772900"/>
</linearGradient>
<linearGradient id="paint7_linear_307_540" x1="44.8568" y1="74.4218" x2="45.0703" y2="77.304" gradientUnits="userSpaceOnUse">
<stop stop-color="#2A1300"/>
<stop offset="1" stop-color="#772900"/>
</linearGradient>
<linearGradient id="paint8_linear_307_540" x1="46.5822" y1="76.3681" x2="74.9606" y2="94.212" gradientUnits="userSpaceOnUse">
<stop stop-color="#1A1A1A"/>
<stop offset="1" stop-color="#772900"/>
</linearGradient>
<linearGradient id="paint9_linear_307_540" x1="68.3768" y1="79.7662" x2="58.107" y2="89.3113" gradientUnits="userSpaceOnUse">
<stop stop-color="#1A1A1A"/>
<stop offset="1" stop-color="#772900"/>
</linearGradient>
<linearGradient id="paint10_linear_307_540" x1="58.422" y1="43.729" x2="48.7435" y2="44.8676" gradientUnits="userSpaceOnUse">
<stop stop-color="#E7B500"/>
<stop offset="1" stop-color="#E74700"/>
</linearGradient>
<linearGradient id="paint11_linear_307_540" x1="38.9779" y1="61.0731" x2="-1.72887" y2="62.6388" gradientUnits="userSpaceOnUse">
<stop stop-color="#1A1A1A"/>
<stop offset="1" stop-color="#772900"/>
</linearGradient>
<linearGradient id="paint12_linear_307_540" x1="81.0275" y1="66.0299" x2="7.97115" y2="101.41" gradientUnits="userSpaceOnUse">
<stop stop-color="#E7B500"/>
<stop offset="1" stop-color="#E74700"/>
</linearGradient>
<linearGradient id="paint13_linear_307_540" x1="66.481" y1="69.191" x2="22.7155" y2="90.3859" gradientUnits="userSpaceOnUse">
<stop stop-color="#E7B500"/>
<stop offset="1" stop-color="#E74700"/>
</linearGradient>
<linearGradient id="paint14_linear_307_540" x1="73.8144" y1="51.2457" x2="0.853877" y2="86.5794" gradientUnits="userSpaceOnUse">
<stop stop-color="#E7B500"/>
<stop offset="1" stop-color="#E74700"/>
</linearGradient>
<linearGradient id="paint15_linear_307_540" x1="58.0355" y1="46.5134" x2="29.94" y2="60.1196" gradientUnits="userSpaceOnUse">
<stop stop-color="#E7B500"/>
<stop offset="1" stop-color="#E74700"/>
</linearGradient>
<linearGradient id="paint16_linear_307_540" x1="67.7947" y1="38.8957" x2="-4.96414" y2="74.1317" gradientUnits="userSpaceOnUse">
<stop stop-color="#E7B500"/>
<stop offset="1" stop-color="#E74700"/>
</linearGradient>
<linearGradient id="paint17_linear_307_540" x1="11.0815" y1="75.3785" x2="11.7131" y2="95.5875" gradientUnits="userSpaceOnUse">
<stop stop-color="#1A1A1A"/>
<stop offset="1" stop-color="#772900"/>
</linearGradient>
<linearGradient id="paint18_linear_307_540" x1="17.9764" y1="78.2196" x2="7.7066" y2="87.7647" gradientUnits="userSpaceOnUse">
<stop stop-color="#1A1A1A"/>
<stop offset="1" stop-color="#772900"/>
</linearGradient>
<linearGradient id="paint19_linear_307_540" x1="38.0087" y1="69.0178" x2="-8.15512" y2="84.1028" gradientUnits="userSpaceOnUse">
<stop stop-color="#E7B500"/>
<stop offset="1" stop-color="#E74700"/>
</linearGradient>
<linearGradient id="paint20_linear_307_540" x1="35.9293" y1="70.324" x2="-9.50504" y2="85.1706" gradientUnits="userSpaceOnUse">
<stop stop-color="#E7B500"/>
<stop offset="1" stop-color="#E74700"/>
</linearGradient>
<linearGradient id="paint21_linear_307_540" x1="67.7748" y1="38.9012" x2="-4.92311" y2="74.1077" gradientUnits="userSpaceOnUse">
<stop stop-color="#E7B500"/>
<stop offset="1" stop-color="#E74700"/>
</linearGradient>
<linearGradient id="paint22_linear_307_540" x1="41.9769" y1="59.953" x2="41.6735" y2="59.4345" gradientUnits="userSpaceOnUse">
<stop stop-color="#E7659D"/>
<stop offset="1" stop-color="#6300B9"/>
</linearGradient>
<linearGradient id="paint23_linear_307_540" x1="33.4847" y1="73.2688" x2="32.0595" y2="48.3075" gradientUnits="userSpaceOnUse">
<stop stop-color="#5C2100"/>
<stop offset="1" stop-color="#772900"/>
</linearGradient>
<linearGradient id="paint24_linear_307_540" x1="41.2227" y1="72.8272" x2="39.7975" y2="47.8652" gradientUnits="userSpaceOnUse">
<stop stop-color="#5C2100"/>
<stop offset="1" stop-color="#772900"/>
</linearGradient>
<linearGradient id="paint25_linear_307_540" x1="42.2492" y1="74.6149" x2="42.4627" y2="77.4971" gradientUnits="userSpaceOnUse">
<stop stop-color="#2A1300"/>
<stop offset="1" stop-color="#772900"/>
</linearGradient>
<linearGradient id="paint26_linear_307_540" x1="27.7724" y1="52.4428" x2="30.6902" y2="34.0109" gradientUnits="userSpaceOnUse">
<stop stop-color="#BF0000"/>
<stop offset="1" stop-color="#FF5555"/>
</linearGradient>
<linearGradient id="paint27_linear_307_540" x1="32.489" y1="25.0036" x2="31.9416" y2="30.1288" gradientUnits="userSpaceOnUse">
<stop stop-color="#F0877E"/>
<stop offset="1" stop-color="#FABEB2"/>
</linearGradient>
<linearGradient id="paint28_linear_307_540" x1="30.1007" y1="28.7132" x2="34.2674" y2="21.8297" gradientUnits="userSpaceOnUse">
<stop stop-color="#5C1A00"/>
<stop offset="1" stop-color="#B94300"/>
</linearGradient>
<linearGradient id="paint29_linear_307_540" x1="29.9427" y1="26.6997" x2="29.9762" y2="28.3132" gradientUnits="userSpaceOnUse">
<stop stop-color="#F0877E"/>
<stop offset="1" stop-color="#FABEB2"/>
</linearGradient>
<linearGradient id="paint30_linear_307_540" x1="30.0145" y1="26.9864" x2="30.036" y2="28.0186" gradientUnits="userSpaceOnUse">
<stop stop-color="#F0877E"/>
<stop offset="1" stop-color="#FABEB2"/>
</linearGradient>
<linearGradient id="paint31_linear_307_540" x1="28.4517" y1="26.2243" x2="37.1271" y2="22.0999" gradientUnits="userSpaceOnUse">
<stop stop-color="#BF0000"/>
<stop offset="1" stop-color="#FF5555"/>
</linearGradient>
<linearGradient id="paint32_linear_307_540" x1="21.9516" y1="45.1929" x2="49.3635" y2="45.6888" gradientUnits="userSpaceOnUse">
<stop stop-color="#F0877E"/>
<stop offset="1" stop-color="#FABEB2"/>
</linearGradient>
<linearGradient id="paint33_linear_307_540" x1="45.9874" y1="44.9547" x2="47.0073" y2="44.9683" gradientUnits="userSpaceOnUse">
<stop stop-color="#F0877E"/>
<stop offset="1" stop-color="#FABEB2"/>
</linearGradient>
<linearGradient id="paint34_linear_307_540" x1="46.6696" y1="45.0758" x2="48.165" y2="45.0956" gradientUnits="userSpaceOnUse">
<stop stop-color="#F0877E"/>
<stop offset="1" stop-color="#FABEB2"/>
</linearGradient>
<linearGradient id="paint35_linear_307_540" x1="32.776" y1="39.2564" x2="25.0893" y2="53.0762" gradientUnits="userSpaceOnUse">
<stop stop-color="#BF0000"/>
<stop offset="1" stop-color="#FF5555"/>
</linearGradient>
<linearGradient id="paint36_linear_307_540" x1="32.3887" y1="39.6698" x2="30.9648" y2="42.2298" gradientUnits="userSpaceOnUse">
<stop stop-color="#BF0000"/>
<stop offset="1" stop-color="#FF5555"/>
</linearGradient>
<linearGradient id="paint37_linear_307_540" x1="21.9404" y1="45.7742" x2="49.3528" y2="46.2701" gradientUnits="userSpaceOnUse">
<stop stop-color="#F0877E"/>
<stop offset="1" stop-color="#FABEB2"/>
</linearGradient>
<linearGradient id="paint38_linear_307_540" x1="49.3061" y1="45.7273" x2="51.3071" y2="46.7084" gradientUnits="userSpaceOnUse">
<stop stop-color="#F0877E"/>
<stop offset="1" stop-color="#FABEB2"/>
</linearGradient>
<linearGradient id="paint39_linear_307_540" x1="51.4064" y1="45.1295" x2="49.4742" y2="47.2899" gradientUnits="userSpaceOnUse">
<stop stop-color="#E7B500"/>
<stop offset="1" stop-color="#E74700"/>
</linearGradient>
<linearGradient id="paint40_linear_307_540" x1="23.4994" y1="49.3196" x2="30.3193" y2="26.8089" gradientUnits="userSpaceOnUse">
<stop stop-color="#5C1A00"/>
<stop offset="1" stop-color="#B94300"/>
</linearGradient>
<linearGradient id="paint41_linear_307_540" x1="28.6933" y1="52.5885" x2="31.6111" y2="34.1566" gradientUnits="userSpaceOnUse">
<stop stop-color="#BF0000"/>
<stop offset="1" stop-color="#FF5555"/>
</linearGradient>
<linearGradient id="paint42_linear_307_540" x1="-4.41471" y1="57.7332" x2="21.8455" y2="28.6976" gradientUnits="userSpaceOnUse">
<stop stop-color="#BF0000"/>
<stop offset="1" stop-color="#FF5555"/>
</linearGradient>
<linearGradient id="paint43_linear_307_540" x1="4.257" y1="48.1659" x2="21.7637" y2="28.7377" gradientUnits="userSpaceOnUse">
<stop stop-color="#BF0000"/>
<stop offset="1" stop-color="#FF5555"/>
</linearGradient>
<linearGradient id="paint44_linear_307_540" x1="-3.58135" y1="32.8649" x2="36.8382" y2="17.2487" gradientUnits="userSpaceOnUse">
<stop stop-color="#5C1A00"/>
<stop offset="1" stop-color="#B94300"/>
</linearGradient>
</defs>
</svg>
